# Blender 4.1.1
# www.blender.org
mtllib shelf.mtl
o Cube
v 1.617195 1.908129 2.370293
v 1.461957 1.908129 2.370293
v 1.461957 1.908129 2.525531
v 1.617195 1.908129 2.525531
v -1.617195 1.908129 2.370293
v -1.461957 1.908129 2.370293
v -1.461957 1.908129 2.525531
v -1.617195 1.908129 2.525531
v 1.617195 1.908129 -2.370293
v 1.461957 1.908129 -2.370293
v 1.461957 1.908129 -2.525531
v 1.617195 1.908129 -2.525531
v -1.617195 1.908129 -2.370293
v -1.461957 1.908129 -2.370293
v -1.461957 1.908129 -2.525531
v -1.617195 1.908129 -2.525531
v 1.769434 -1.071978 2.720746
v 1.769434 -0.945345 2.720746
v 1.769434 -1.071978 0.000000
v 1.769434 -0.945345 0.000000
v 0.000000 -1.071978 2.720746
v 0.000000 -0.945345 2.720746
v 0.000000 -0.945345 0.000000
v 0.000000 -1.071978 0.000000
v -1.769434 -1.071978 2.720746
v -1.769434 -0.945345 2.720746
v -1.769434 -1.071978 0.000000
v -1.769434 -0.945345 0.000000
v 1.769434 -1.071978 -2.720746
v 1.769434 -0.945345 -2.720746
v 0.000000 -1.071978 -2.720746
v 0.000000 -0.945345 -2.720746
v -1.769434 -1.071978 -2.720746
v -1.769434 -0.945345 -2.720746
v 1.769434 0.104106 2.720746
v 1.769434 0.230739 2.720746
v 1.617195 -1.908129 2.370293
v 1.461957 -1.908129 2.370293
v 1.461957 -1.908129 2.525531
v 1.769434 0.104106 0.000000
v 1.769434 0.230739 0.000000
v 1.617195 -1.908129 2.525531
v 0.000000 0.104106 2.720746
v 0.000000 0.230739 2.720746
v 0.000000 0.230739 0.000000
v 0.000000 0.104106 0.000000
v -1.769434 0.104106 2.720746
v -1.769434 0.230739 2.720746
v -1.617195 -1.908129 2.370293
v -1.461957 -1.908129 2.370293
v -1.461957 -1.908129 2.525531
v -1.769434 0.104106 0.000000
v -1.769434 0.230739 0.000000
v -1.617195 -1.908129 2.525531
v 1.769434 0.104106 -2.720746
v 1.769434 0.230739 -2.720746
v 1.617195 -1.908129 -2.370293
v 1.461957 -1.908129 -2.370293
v 1.461957 -1.908129 -2.525531
v 1.617195 -1.908129 -2.525531
v 0.000000 0.104106 -2.720746
v 0.000000 0.230739 -2.720746
v -1.769434 0.104106 -2.720746
v -1.769434 0.230739 -2.720746
v -1.617195 -1.908129 -2.370293
v -1.461957 -1.908129 -2.370293
v -1.461957 -1.908129 -2.525531
v -1.617195 -1.908129 -2.525531
v 1.769434 1.458519 2.720746
v 1.769434 1.331886 2.720746
v 1.769434 1.458519 0.000000
v 1.769434 1.331886 0.000000
v 0.000000 1.458519 2.720746
v 0.000000 1.331886 2.720746
v 0.000000 1.331886 0.000000
v 0.000000 1.458519 0.000000
v -1.769434 1.458519 2.720746
v -1.769434 1.331886 2.720746
v -1.769434 1.458519 0.000000
v -1.769434 1.331886 0.000000
v 1.769434 1.458519 -2.720746
v 1.769434 1.331886 -2.720746
v 0.000000 1.458519 -2.720746
v 0.000000 1.331886 -2.720746
v -1.769434 1.458519 -2.720746
v -1.769434 1.331886 -2.720746
vn 1.0000 -0.0000 -0.0000
vn -0.0000 -0.0000 -1.0000
vn -0.0000 1.0000 -0.0000
vn -0.0000 -0.0000 1.0000
vn -1.0000 -0.0000 -0.0000
vn -0.0000 -1.0000 -0.0000
vt 0.692323 0.941971
vt 0.692323 0.039937
vt 0.722921 0.039937
vt 0.722921 0.941971
vt 0.755569 0.039937
vt 0.755569 0.941971
vt 0.656829 0.941971
vt 0.656893 0.979008
vt 0.692304 0.979008
vt 0.656829 0.039937
vt 0.787233 0.039937
vt 0.787233 0.941971
vt 0.656829 0.039937
vt 0.692304 0.979008
vt 0.265215 0.510884
vt 0.265215 0.057407
vt 0.504138 0.057407
vt 0.504138 0.510884
vt 0.916024 0.385043
vt 0.916024 0.271304
vt 0.923965 0.271304
vt 0.923965 0.385043
vt 0.916024 0.157565
vt 0.923965 0.157565
vt 0.504138 0.510884
vt 0.504138 0.964360
vt 0.265215 0.964360
vt 0.265215 0.510884
vt 0.026292 0.510884
vt 0.026292 0.057407
vt 0.916024 0.840001
vt 0.923965 0.840001
vt 0.923965 0.953740
vt 0.916024 0.953740
vt 0.916024 0.043825
vt 0.923965 0.043825
vt 0.026292 0.510884
vt 0.026292 0.964360
vt 0.923965 0.498783
vt 0.916024 0.498783
vt 0.923965 0.612522
vt 0.916024 0.612522
vt 0.265215 0.057407
vt 0.504138 0.057407
vt 0.916024 0.726261
vt 0.923965 0.726261
vt 0.026292 0.057407
vt 0.923965 0.953740
vt 0.916024 0.953740
vt 0.923965 0.043825
vt 0.916024 0.043825
s 0
usemtl Material
f 7/1/1 51/2/1 50/3/1 6/4/1
f 1/4/2 37/3/2 38/5/2 2/6/2
f 4/1/1 42/2/1 37/3/1 1/4/1
f 1/1/3 2/7/3 3/8/3 4/9/3
f 3/7/4 39/10/4 42/2/4 4/1/4
f 11/6/5 59/5/5 58/11/5 10/12/5
f 6/4/2 50/3/2 49/5/2 5/6/2
f 5/6/5 49/5/5 54/11/5 8/12/5
f 5/7/3 8/8/3 7/9/3 6/1/3
f 8/7/4 54/10/4 51/2/4 7/1/4
f 14/1/1 66/2/1 67/3/1 15/4/1
f 10/7/4 58/13/4 57/2/4 9/1/4
f 9/1/1 57/2/1 60/3/1 12/4/1
f 9/14/3 12/1/3 11/7/3 10/8/3
f 12/4/2 60/3/2 59/5/2 11/6/2
f 13/7/4 65/10/4 66/2/4 14/1/4
f 16/6/5 68/5/5 65/11/5 13/12/5
f 13/8/3 14/9/3 15/1/3 16/7/3
f 15/4/2 67/3/2 68/5/2 16/6/2
f 23/15/3 22/16/3 18/17/3 20/18/3
f 20/19/1 18/20/1 17/21/1 19/22/1
f 18/20/4 22/23/4 21/24/4 17/21/4
f 19/25/6 17/26/6 21/27/6 24/28/6
f 23/15/3 28/29/3 26/30/3 22/16/3
f 28/31/5 27/32/5 25/33/5 26/34/5
f 26/35/4 25/36/4 21/24/4 22/23/4
f 27/37/6 24/28/6 21/27/6 25/38/6
f 23/15/3 20/18/3 30/26/3 32/27/3
f 20/19/1 19/22/1 29/39/1 30/40/1
f 30/40/2 29/39/2 31/41/2 32/42/2
f 19/25/6 24/28/6 31/43/6 29/44/6
f 23/15/3 32/27/3 34/38/3 28/29/3
f 28/31/5 34/45/5 33/46/5 27/32/5
f 34/45/2 32/42/2 31/41/2 33/46/2
f 27/37/6 33/47/6 31/43/6 24/28/6
f 45/15/3 44/43/3 36/44/3 41/18/3
f 41/41/1 36/46/1 35/45/1 40/42/1
f 36/46/4 44/32/4 43/31/4 35/45/4
f 40/18/6 35/26/6 43/27/6 46/15/6
f 45/15/3 53/29/3 48/47/3 44/43/3
f 53/24/5 52/23/5 47/35/5 48/36/5
f 48/48/4 47/49/4 43/31/4 44/32/4
f 52/29/6 46/15/6 43/27/6 47/38/6
f 45/15/3 41/18/3 56/26/3 62/27/3
f 41/41/1 40/42/1 55/40/1 56/39/1
f 56/39/2 55/40/2 61/19/2 62/22/2
f 40/18/6 46/15/6 61/16/6 55/17/6
f 45/15/3 62/27/3 64/38/3 53/29/3
f 53/24/5 64/21/5 63/20/5 52/23/5
f 64/21/2 62/22/2 61/19/2 63/20/2
f 52/29/6 63/30/6 61/16/6 46/15/6
f 75/15/6 72/18/6 70/26/6 74/27/6
f 72/22/1 71/19/1 69/20/1 70/21/1
f 70/21/4 69/20/4 73/23/4 74/24/4
f 71/18/3 76/15/3 73/16/3 69/44/3
f 75/15/6 74/27/6 78/38/6 80/29/6
f 80/32/5 78/33/5 77/34/5 79/31/5
f 78/50/4 74/24/4 73/23/4 77/51/4
f 79/29/3 77/47/3 73/16/3 76/15/3
f 75/15/6 84/16/6 82/17/6 72/18/6
f 72/22/1 82/39/1 81/40/1 71/19/1
f 82/39/2 84/41/2 83/42/2 81/40/2
f 71/18/3 81/26/3 83/27/3 76/15/3
f 75/15/6 80/29/6 86/30/6 84/16/6
f 80/32/5 79/31/5 85/45/5 86/46/5
f 86/46/2 85/45/2 83/42/2 84/41/2
f 79/29/3 76/15/3 83/27/3 85/38/3
f 2/6/5 38/5/5 39/11/5 3/12/5
